<?xml version="1.0" ?><!DOCTYPE svg  PUBLIC '-//W3C//DTD SVG 1.1//EN'  'http://www.w3.org/Graphics/SVG/1.1/DTD/svg11.dtd'><svg enable-background="new 0 0 48 48" height="48px" id="Layer_1" version="1.1" viewBox="0 0 48 48" width="48px" xml:space="preserve" xmlns="http://www.w3.org/2000/svg" xmlns:xlink="http://www.w3.org/1999/xlink"><path d="M24,0C10.745,0,0,10.745,0,24s10.745,24,24,24c13.254,0,24-10.745,24-24S37.254,0,24,0z M16.3,34.517  c-1.318,0-2.387-1.068-2.387-2.387s1.068-2.387,2.387-2.387s2.387,1.068,2.387,2.387S17.619,34.517,16.3,34.517z M28.645,34.517  c-1.318,0-2.387-1.068-2.387-2.387s1.068-2.387,2.387-2.387s2.387,1.068,2.387,2.387S29.963,34.517,28.645,34.517z M36.729,15.125  c0.025,1.123-0.814,1.293-1.199,1.313h-0.191c-1.555,0.025-1.932,1.03-2.02,1.389l-0.027,0.135l0,0L32.857,20l-1.506,8.344H14.397  l-3.128-10.041H29.01c1.059,0,1.4-0.545,1.514-0.885l0.514-2.26v0.002l0.049-0.427c0.002-0.011,0.182-1.249,1.736-1.249h2.156  c0,0,1.75-0.047,1.75,1.453V15.125z" fill="#231F20"/></svg>